<?xml version="1.0" standalone="no"?>
<!DOCTYPE svg PUBLIC "-//W3C//DTD SVG 20010904//EN"
 "http://www.w3.org/TR/2001/REC-SVG-20010904/DTD/svg10.dtd">
<svg version="1.0" xmlns="http://www.w3.org/2000/svg"
 width="460.000000pt" height="460.000000pt" viewBox="0 0 460.000000 460.000000"
 preserveAspectRatio="xMidYMid meet">
<metadata>
Created by potrace 1.14, written by Peter Selinger 2001-2017
</metadata>
<g transform="translate(0.000000,460.000000) scale(0.100000,-0.100000)"
fill="#000000" stroke="none">
<path d="M0 2300 l0 -2300 2300 0 2300 0 0 2300 0 2300 -2300 0 -2300 0 0
-2300z m3184 1240 c60 -24 108 -66 231 -200 28 -30 78 -82 113 -114 34 -32 65
-70 69 -84 10 -42 -6 -154 -32 -227 -15 -38 -30 -103 -35 -143 -14 -110 -83
-223 -174 -286 -30 -20 -30 -27 -1 -106 11 -30 17 -81 18 -151 2 -92 -1 -110
-17 -128 -22 -25 -91 -29 -120 -8 -19 14 -19 17 0 188 5 39 2 50 -21 78 -35
41 -100 85 -150 101 -22 7 -44 16 -50 20 -20 15 -125 31 -162 24 -63 -11 -125
-50 -168 -105 -22 -29 -65 -79 -95 -112 l-55 -59 -1 -141 c-1 -134 -3 -142
-24 -159 -30 -24 -38 -11 -32 51 6 65 -9 91 -53 91 -22 0 -41 -8 -54 -21 -12
-13 -21 -17 -26 -10 -7 12 -81 15 -88 4 -8 -13 -263 -7 -297 7 -17 7 -48 10
-70 7 -28 -3 -40 -1 -44 9 -7 17 -38 18 -54 2 -9 -9 -13 -7 -18 8 -12 34 -57
63 -96 64 -20 0 -40 -5 -43 -11 -5 -7 -13 -4 -26 7 -19 17 -65 30 -154 42 -27
4 -56 12 -64 16 -8 5 -27 12 -44 15 -29 6 -29 7 77 111 61 61 112 119 120 141
16 40 9 90 -21 153 -14 31 -15 40 -3 77 8 23 38 78 68 123 57 87 88 166 122
316 28 123 60 229 77 257 38 58 159 85 233 51 169 -78 149 -76 386 -48 236 28
382 -37 425 -190 9 -29 14 -125 15 -272 2 -202 5 -231 22 -272 22 -48 63 -76
132 -91 19 -4 80 -25 135 -46 69 -27 103 -35 110 -28 11 11 -18 39 -42 39 -7
0 -13 4 -13 9 0 5 -17 15 -37 22 -21 7 -47 18 -58 25 -11 6 -53 22 -93 35 -46
15 -78 31 -85 44 -8 14 -11 80 -9 216 3 172 0 207 -17 277 -47 183 -143 273
-310 290 l-75 7 40 20 c21 11 46 25 54 31 18 14 133 51 175 58 17 2 102 3 190
2 142 -2 167 -5 219 -26z m-81 -1155 c51 -22 58 -36 28 -57 -44 -31 -54 -81
-61 -303 l-6 -210 -37 -75 c-50 -99 -112 -178 -172 -218 -34 -22 -49 -38 -46
-50 2 -9 4 -46 5 -82 1 -91 -18 -120 -79 -120 -40 0 -46 3 -61 32 -14 27 -14
39 -4 90 16 73 6 98 -49 125 -37 19 -39 21 -23 36 24 24 4 21 -78 -12 -88 -36
-147 -76 -166 -112 -8 -16 -14 -57 -14 -96 0 -88 -16 -113 -70 -113 -53 0 -63
20 -54 115 5 61 4 79 -10 100 -13 19 -14 30 -6 45 19 35 -8 23 -54 -25 -72
-76 -81 -143 -41 -303 24 -94 24 -101 10 -150 -13 -44 -20 -52 -51 -62 -28
-10 -46 -10 -75 -1 -62 19 -70 39 -68 182 2 143 -6 173 -71 243 -44 47 -107
76 -168 76 -33 0 -34 1 -28 30 6 33 -4 38 -28 14 -22 -22 -20 -82 5 -148 17
-44 20 -63 13 -89 -9 -29 -14 -32 -52 -35 -34 -3 -47 2 -68 23 -25 26 -26 30
-21 103 3 43 8 84 11 92 4 9 -8 31 -30 55 -94 104 -151 194 -182 283 -10 29
-9 32 9 32 10 0 28 -9 39 -20 15 -15 33 -20 70 -20 44 0 51 -3 64 -29 9 -16
23 -31 32 -35 21 -8 54 2 54 16 0 6 10 -2 22 -17 30 -39 76 -55 156 -55 77 0
108 15 100 48 -4 15 -2 19 8 15 8 -3 21 0 28 6 12 10 15 6 21 -18 8 -37 24
-50 69 -58 44 -7 90 11 111 43 l16 24 21 -20 c12 -11 31 -20 42 -20 24 0 61
28 68 50 3 10 16 14 45 12 40 -3 61 8 81 44 7 13 13 13 36 3 23 -11 30 -10 54
8 17 13 28 31 30 51 2 23 10 33 34 43 17 7 41 23 53 37 13 14 46 30 76 38 75
20 83 11 77 -91 -3 -44 -1 -90 5 -102 12 -27 67 -40 106 -27 54 19 76 124 50
230 -10 37 -9 48 6 70 9 15 21 57 26 93 4 37 18 89 31 116 32 69 99 177 107
173 4 -2 28 -12 54 -23z m-1729 -233 c2 -4 -11 -31 -30 -60 -31 -45 -38 -51
-55 -42 -23 13 -25 33 -4 50 8 7 15 18 15 26 0 24 61 46 74 26z m110 -21 c3
-5 -1 -11 -9 -14 -8 -4 -26 -29 -40 -57 -25 -50 -41 -60 -62 -39 -21 21 51
119 87 119 10 0 21 -4 24 -9z m103 -36 c7 -20 -57 -115 -77 -115 -8 0 -25 3
-37 6 l-22 6 20 39 c11 22 29 49 39 59 24 24 68 26 77 5z m116 -4 c35 -13 46
-78 21 -116 -17 -26 -20 -27 -83 -21 -36 4 -67 9 -70 12 -2 2 4 14 15 27 11
12 32 41 47 65 29 45 33 47 70 33z m-451 -126 c-4 -38 -7 -45 -13 -30 -4 11
-8 40 -8 65 -1 38 1 42 12 30 9 -10 12 -31 9 -65z m553 -110 l0 -175 -63 0
c-72 0 -122 20 -122 50 0 16 89 166 127 215 6 7 58 84 58 85 0 0 0 -79 0 -175z
m635 136 c0 -31 -4 -41 -20 -46 -11 -3 -24 -3 -30 0 -17 10 -12 63 8 74 32 19
42 13 42 -28z m-482 17 c22 -22 13 -81 -22 -154 -19 -39 -41 -76 -50 -83 -13
-11 -17 -5 -30 40 -9 29 -16 79 -16 110 0 47 4 62 22 79 24 22 77 27 96 8z
m149 -14 c10 -27 -27 -124 -48 -124 -42 0 -46 8 -37 68 5 31 14 60 21 64 21
13 57 9 64 -8z m113 -27 c0 -53 -11 -67 -50 -67 l-38 0 9 43 c12 50 33 71 60
56 11 -5 19 -20 19 -32z m100 4 c0 -34 -4 -40 -30 -50 -29 -9 -30 -9 -30 17 0
51 11 72 36 72 21 0 24 -5 24 -39z m-992 -61 c-1 -38 -2 -70 -4 -70 -1 0 -10
7 -18 16 -27 26 -19 124 9 124 10 0 13 -19 13 -70z m107 28 c1 -2 5 -31 8 -65
4 -55 3 -62 -15 -66 -44 -12 -58 11 -58 100 l0 52 31 -9 c18 -5 33 -11 34 -12z
m151 -28 c42 0 54 -3 54 -15 0 -24 -37 -90 -71 -130 -30 -34 -33 -35 -50 -19
-10 9 -23 42 -29 73 -6 31 -13 67 -16 80 -5 22 -3 23 27 17 17 -3 56 -6 85 -6z
m855 -83 c-12 -32 -36 -35 -51 -8 -18 35 -12 59 18 69 23 8 28 6 35 -13 4 -12
3 -34 -2 -48z m-132 -60 c-30 -24 -49 -5 -52 54 -2 43 -1 44 33 49 l35 5 3
-45 c3 -37 -1 -48 -19 -63z m-99 47 c0 -58 -20 -114 -41 -114 -26 0 -39 30
-39 89 0 49 1 50 33 54 17 2 35 5 40 5 4 1 7 -14 7 -34z m-140 -47 c0 -49 -21
-84 -57 -98 -57 -21 -82 17 -62 96 l11 45 54 0 54 0 0 -43z"/>
<path d="M1948 3344 c-56 -17 -83 -48 -103 -119 -8 -28 -36 -87 -61 -130 -50
-86 -65 -156 -42 -186 37 -46 101 -58 214 -38 51 9 69 18 102 50 29 27 43 50
47 76 3 21 11 65 17 98 18 91 16 175 -5 206 -31 46 -100 64 -169 43z m13 -102
c-9 -26 -38 -87 -65 -136 -38 -69 -49 -99 -49 -136 -1 -39 -4 -47 -16 -42 -49
17 -48 37 4 117 18 28 40 75 50 105 22 69 44 112 64 127 27 21 29 15 12 -35z"/>
<path d="M2390 3303 c-43 -22 -56 -34 -58 -54 -4 -36 18 -42 62 -18 55 29 58
24 18 -39 -60 -94 -62 -96 -74 -122 -6 -14 -12 -68 -12 -121 -1 -94 -1 -96
-22 -87 -35 16 -45 134 -18 213 17 53 7 78 -30 73 -28 -4 -44 -67 -45 -175 -1
-91 8 -126 42 -154 27 -24 83 -49 108 -49 24 0 24 -20 -1 -90 -25 -70 -25 -85
1 -121 16 -23 28 -29 59 -29 52 0 77 32 85 108 3 31 9 70 13 86 9 35 32 47 32
16 0 -37 19 -60 48 -60 34 0 52 16 52 46 0 13 11 35 24 49 33 36 46 96 47 224
2 132 -16 193 -74 252 -50 51 -87 70 -151 76 -42 4 -60 0 -106 -24z"/>
<path d="M1712 2754 c-26 -12 -60 -81 -66 -134 -4 -30 -19 -90 -33 -134 -22
-68 -24 -83 -14 -117 13 -43 61 -79 107 -79 51 0 149 55 214 120 70 70 99 126
100 188 0 81 -99 147 -235 157 -33 3 -66 2 -73 -1z m58 -64 c0 -6 -6 -23 -14
-38 -8 -15 -17 -54 -21 -87 -4 -33 -16 -80 -26 -104 -10 -24 -19 -57 -19 -73
0 -26 -2 -29 -15 -18 -21 17 -19 37 10 125 13 42 27 99 31 128 3 29 13 58 22
65 19 15 32 16 32 2z"/>
</g>
</svg>
